<svg width="51" height="38" viewBox="0 0 51 38" fill="none" xmlns="http://www.w3.org/2000/svg">
<rect width="51" height="38" fill="#1E1E1E"/>
<g clip-path="url(#clip0_0_1)">
<rect width="412" height="917" transform="translate(-230 -558)" fill="#FAFAFA"/>
<rect x="-8" y="-120" width="170" height="170" rx="12" fill="#49C6FC"/>
<path d="M40.3694 37.7053C34.8932 37.7053 30.4233 34.1192 30.4233 29.7258V28.7871C30.4233 28.0173 31.219 27.3789 32.1785 27.3789C33.138 27.3789 33.9337 28.0173 33.9337 28.7871V29.7258C33.9337 32.5797 36.8122 34.889 40.3694 34.889C43.9265 34.889 46.8051 32.5797 46.8051 29.7258C46.8051 26.872 43.9265 24.5627 40.3694 24.5627H1.75519C0.795686 24.5627 0 23.9243 0 23.1545C0 22.3848 0.795686 21.7464 1.75519 21.7464H40.3694C45.8456 21.7464 50.3154 25.3325 50.3154 29.7258C50.3154 34.1192 45.8456 37.7053 40.3694 37.7053Z" fill="#FAFAFA"/>
<path d="M40.3694 18.9302H1.75519C0.795686 18.9302 0 18.2918 0 17.522C0 16.7523 0.795686 16.1139 1.75519 16.1139H40.3694C43.9265 16.1139 46.8051 13.8046 46.8051 10.9507C46.8051 8.09693 43.9265 5.78758 40.3694 5.78758C36.8122 5.78758 33.9337 8.09693 33.9337 10.9507V11.8895C33.9337 12.6593 33.138 13.2976 32.1785 13.2976C31.219 13.2976 30.4233 12.6593 30.4233 11.8895V10.9507C30.4233 6.55737 34.8932 2.97131 40.3694 2.97131C45.8456 2.97131 50.3154 6.55737 50.3154 10.9507C50.3154 15.3441 45.8456 18.9302 40.3694 18.9302Z" fill="#FAFAFA"/>
<path d="M18.8624 13.2996H1.75519C0.795686 13.2996 0 12.6613 0 11.8915C0 11.1217 0.795686 10.4833 1.75519 10.4833H18.8624C21.3665 10.4833 23.4025 8.84991 23.4025 6.84097C23.4025 4.83203 21.3665 3.1986 18.8624 3.1986C16.3584 3.1986 14.3223 4.83203 14.3223 6.84097V7.55443C14.3223 8.32421 13.5267 8.96256 12.5672 8.96256C11.6077 8.96256 10.812 8.34298 10.812 7.55443V6.84097C10.812 3.2737 14.416 0.382324 18.8624 0.382324C23.3089 0.382324 26.9129 3.2737 26.9129 6.84097C26.9129 10.4082 23.3089 13.2996 18.8624 13.2996Z" fill="#FAFAFA"/>
</g>
<defs>
<clipPath id="clip0_0_1">
<rect width="412" height="917" fill="white" transform="translate(-230 -558)"/>
</clipPath>
</defs>
</svg>
